<svg width="80" height="80" viewBox="0 0 80 80" fill="none" xmlns="http://www.w3.org/2000/svg">
<path fill-rule="evenodd" clip-rule="evenodd" d="M43.8436 51.9357C43.0192 52.4181 42.7419 53.4779 43.2244 54.3026C43.5778 54.9065 44.1488 56.0202 44.6531 57.3081C45.1637 58.6122 45.5604 59.9802 45.6481 61.1263C45.7018 61.8292 45.5046 62.6955 45.1233 63.6606C44.8916 64.2469 44.6209 64.8023 44.3536 65.3195C43.8958 65.4823 43.516 65.8349 43.328 66.3016C42.6451 66.3163 42.007 66.7374 41.7484 67.4149C41.4078 68.3075 41.855 69.3074 42.7476 69.648C43.3079 69.862 44.0466 70.1591 44.8999 70.5023C45.0978 70.5818 45.3019 70.664 45.5114 70.748C46.6126 71.1901 47.8441 71.6806 49.0385 72.1296C50.227 72.5765 51.41 72.9942 52.4092 73.2844C52.9073 73.429 53.3915 73.5514 53.8258 73.6277C54.2098 73.6951 54.7442 73.7638 55.2531 73.6707C56.1887 73.4994 56.8099 72.6048 56.6452 71.6693C57.4566 71.8064 58.249 71.8917 58.8705 71.8357C59.8219 71.7501 60.5238 70.909 60.438 69.9575C60.4256 69.8187 60.397 69.6853 60.3543 69.5589C60.4655 69.5492 60.5949 69.5329 60.7294 69.5043C60.8674 69.4749 61.2047 69.3949 61.5345 69.1513C62.3029 68.5836 62.4658 67.5004 61.8983 66.7318C61.4429 66.1151 60.6556 65.8884 59.9652 66.1161C59.8758 66.1184 59.7462 66.1175 59.5657 66.1121C59.4585 66.109 59.3315 66.104 59.1922 66.0984C58.8055 66.0831 58.3244 66.064 57.9117 66.0706C57.3824 66.079 55.3524 65.947 53.0286 65.7599C51.2842 65.6193 49.4715 65.456 48.1817 65.3193C48.2358 65.1919 48.289 65.0626 48.3405 64.9323C48.7989 63.7723 49.2096 62.3308 49.0972 60.8623C48.9717 59.2224 48.4387 57.488 47.8741 56.0462C47.303 54.588 46.653 53.3119 46.21 52.555C45.7275 51.7303 44.6681 51.4531 43.8436 51.9357Z" fill="url(#paint0_linear_41_3541)"/>
<path fill-rule="evenodd" clip-rule="evenodd" d="M36.0781 52.057C36.9174 52.5132 37.2282 53.5636 36.7721 54.4031C36.438 55.018 35.9027 56.1493 35.4395 57.4525C34.9704 58.7722 34.6175 60.1521 34.5662 61.3006C34.5347 62.0047 34.7593 62.8641 35.1711 63.8168C35.4212 64.3954 35.7094 64.942 35.993 65.4504C36.4557 65.5987 36.8465 65.9389 37.0493 66.3996C37.7323 66.3925 38.3835 66.793 38.6635 67.4621C39.0323 68.3434 38.6168 69.3569 37.7356 69.7258C37.1824 69.9575 36.4535 70.2778 35.6114 70.6479C35.4161 70.7337 35.2147 70.8223 35.0081 70.9129C33.9215 71.3898 32.7062 71.9191 31.5267 72.4059C30.3529 72.8901 29.1838 73.3453 28.1943 73.6671C27.701 73.8275 27.221 73.9651 26.7893 74.0552C26.4076 74.1348 25.8756 74.2202 25.3641 74.1434C24.4234 74.0018 23.7743 73.1276 23.9091 72.1873C23.1024 72.3501 22.3133 72.4604 21.6903 72.4243C20.7365 72.3687 20.0084 71.5506 20.0638 70.5966C20.072 70.4577 20.0963 70.3234 20.1348 70.1956C20.0235 70.1895 19.8936 70.1774 19.7582 70.153C19.6194 70.128 19.2796 70.0586 18.9424 69.8257C18.1564 69.2828 17.9593 68.2052 18.502 67.4191C18.9376 66.7882 19.7173 66.5365 20.4146 66.7423C20.5041 66.7418 20.6336 66.7366 20.8137 66.7256C20.9207 66.719 21.0476 66.7099 21.1866 66.7C21.5725 66.6724 22.053 66.638 22.4656 66.6315C22.9949 66.6232 25.0197 66.4269 27.3363 66.166C29.0754 65.9702 30.8821 65.7494 32.1669 65.5719C32.1086 65.4461 32.0515 65.3187 31.9958 65.19C31.5009 64.045 31.0445 62.6173 31.1102 61.1461C31.1837 59.503 31.6615 57.7525 32.18 56.2935C32.7045 54.8179 33.3138 53.5219 33.7325 52.7512C34.1885 51.9116 35.2387 51.6009 36.0781 52.057ZM20.3188 66.7404C20.3188 66.7404 20.3195 66.7404 20.3208 66.7404L20.3188 66.7404Z" fill="url(#paint1_linear_41_3541)"/>
<mask id="mask0_41_3541" style="mask-type:luminance" maskUnits="userSpaceOnUse" x="26" y="6" width="21" height="21">
<path d="M46.5205 8.04271L28.2508 6L26.2273 24.1053L44.497 26.1481L46.5205 8.04271Z" fill="white"/>
</mask>
<g mask="url(#mask0_41_3541)">
<path d="M30.4778 14.0966C29.0919 15.0992 29.3541 17.8285 31.0636 20.1927C32.7731 22.5568 35.2825 23.6607 36.6685 22.6581C38.0544 21.6555 37.7921 18.9262 36.0826 16.562C34.3731 14.1978 31.8638 13.094 30.4778 14.0966Z" fill="url(#paint2_radial_41_3541)"/>
<path d="M35.9395 9.04077C33.5648 9.7558 32.6281 13.6193 33.8473 17.6701C35.0665 21.7209 37.9799 24.425 40.3546 23.71C42.7293 22.995 43.666 19.1315 42.4468 15.0807C41.2276 11.0299 38.3142 8.32574 35.9395 9.04077Z" fill="url(#paint3_radial_41_3541)"/>
</g>
<mask id="mask1_41_3541" style="mask-type:luminance" maskUnits="userSpaceOnUse" x="6" y="30" width="24" height="25">
<path d="M20.9152 30.9727L6.60417 38.6013L15.1275 54.5973L29.4385 46.9686L20.9152 30.9727Z" fill="white"/>
</mask>
<g mask="url(#mask1_41_3541)">
<path d="M11.2188 38.803C10.1208 40.9681 12.2233 44.2417 15.915 46.1147C19.6066 47.9878 23.4895 47.7511 24.5875 45.586C25.6856 43.4209 23.583 40.1474 19.8914 38.2743C16.1997 36.4012 12.3169 36.638 11.2188 38.803Z" fill="url(#paint4_radial_41_3541)"/>
<path d="M11.0826 44.0206C10.5992 46.3996 13.4958 48.9968 17.5523 49.8215C21.6088 50.6462 25.2892 49.3861 25.7726 47.0071C26.2561 44.628 23.3596 42.0308 19.303 41.2061C15.2465 40.3814 11.5661 41.6415 11.0826 44.0206Z" fill="url(#paint5_radial_41_3541)"/>
</g>
<mask id="mask2_41_3541" style="mask-type:luminance" maskUnits="userSpaceOnUse" x="47" y="18" width="32" height="32">
<path d="M47.5797 33.7701L61.9481 49.8816L79 34.6684L64.6318 18.5566L47.5797 33.7701Z" fill="white"/>
</mask>
<g mask="url(#mask2_41_3541)">
<path d="M55.366 38.0581C55.3266 39.815 58.4979 41.3113 62.4493 41.4C66.4008 41.4888 69.636 40.1366 69.6755 38.3797C69.715 36.6228 66.5437 35.1265 62.5922 35.0377C58.6408 34.9489 55.4055 36.3012 55.366 38.0581Z" fill="url(#paint6_radial_41_3541)"/>
<path d="M54.7684 38.0423C55.4732 39.962 59.5447 40.2327 63.8623 38.6468C68.1798 37.0609 71.1086 34.2191 70.4038 32.2994C69.6989 30.3797 65.6275 30.109 61.3099 31.6949C56.9923 33.2808 54.0636 36.1226 54.7684 38.0423Z" fill="url(#paint7_radial_41_3541)"/>
<path d="M54.0294 37.7734C55.6551 39.3817 59.9053 37.7203 63.5225 34.0625C67.1397 30.4047 68.7542 26.1356 67.1286 24.5273C65.5029 22.919 61.2527 24.5805 57.6355 28.2383C54.0183 31.8961 52.4038 36.1651 54.0294 37.7734Z" fill="url(#paint8_radial_41_3541)"/>
</g>
<path d="M68.248 30.5445C67.6406 28.7721 63.9166 28.443 59.9301 29.8095C55.9437 31.1761 53.2043 33.7207 53.8117 35.4932C54.419 37.2657 58.143 37.5948 62.1295 36.2282C66.116 34.8617 68.8553 32.317 68.248 30.5445Z" fill="url(#paint9_radial_41_3541)"/>
<path d="M35.6531 22.0604C25.5976 24.5251 19.4389 34.6575 21.8973 44.6916C24.3557 54.7258 34.5003 60.862 44.5559 58.3973C54.6114 55.9326 60.7701 45.8003 58.3117 35.7661C55.8533 25.7319 45.7087 19.5957 35.6531 22.0604Z" fill="url(#paint10_radial_41_3541)"/>
<mask id="mask3_41_3541" style="mask-type:luminance" maskUnits="userSpaceOnUse" x="27" y="25" width="33" height="25">
<path d="M55.9407 25.7051L27.2762 30.7915L30.5103 49.025L59.1748 43.9385L55.9407 25.7051Z" fill="white"/>
</mask>
<g mask="url(#mask3_41_3541)">
<path fill-rule="evenodd" clip-rule="evenodd" d="M39.4783 46.6881C35.0697 47.7688 30.6016 44.995 29.4986 40.4928C28.3955 35.9906 31.0751 31.4649 35.4838 30.3842C37.2481 29.9517 39.022 30.1367 40.586 30.8027C40.5826 30.7978 40.5793 30.793 40.5759 30.7882C40.8055 30.8522 41.0576 30.9731 41.3227 31.1001C41.8771 31.3658 42.4882 31.6587 43.0683 31.5165C43.4034 31.4343 43.7407 31.1444 44.04 30.8149C44.7206 29.6573 45.723 28.7253 46.9945 28.1805C50.5091 26.675 54.7482 28.7005 56.4627 32.7046C58.1773 36.7088 56.718 41.1753 53.2033 42.6809C51.262 43.5125 49.0997 43.2668 47.2638 42.2053C46.8139 42.0746 46.3513 41.9979 45.9853 42.0876C45.323 42.2499 44.8446 42.81 44.4106 43.3182C44.2052 43.5588 44.0097 43.7876 43.8094 43.9571C42.7305 45.2712 41.2429 46.2556 39.4783 46.6881Z" fill="url(#paint11_radial_41_3541)"/>
<path d="M49.7022 30.8581C48.1306 31.5423 47.6608 33.9451 48.6529 36.2248C49.645 38.5044 51.7233 39.7978 53.2949 39.1135C54.8665 38.4293 55.3363 36.0266 54.3442 33.7469C53.3521 31.4672 51.2738 30.1738 49.7022 30.8581Z" fill="#00C885"/>
<path d="M49.8884 31.0808C48.4579 31.7036 48.0303 33.8908 48.9334 35.966C49.8365 38.0412 51.7283 39.2185 53.1588 38.5957C54.5893 37.9729 55.0168 35.7858 54.1137 33.7106C53.2106 31.6354 51.3189 30.458 49.8884 31.0808Z" fill="black"/>
<path d="M49.4647 32.137C49.058 32.3141 48.9364 32.936 49.1932 33.526C49.45 34.1161 49.9878 34.4508 50.3946 34.2738C50.8013 34.0967 50.9229 33.4748 50.6661 32.8848C50.4093 32.2947 49.8714 31.96 49.4647 32.137Z" fill="white"/>
<path d="M36.6826 33.9839C34.7243 34.1335 33.2894 36.2544 33.4779 38.721C33.6663 41.1876 35.4066 43.0659 37.365 42.9162C39.3233 42.7665 40.7581 40.6456 40.5697 38.1791C40.3813 35.7125 38.641 33.8342 36.6826 33.9839Z" fill="#00C885"/>
<path d="M36.7979 34.2525C35.0154 34.3887 33.7094 36.3194 33.8809 38.5647C34.0524 40.81 35.6365 42.5198 37.419 42.3836C39.2015 42.2473 40.5075 40.3167 40.336 38.0714C40.1644 35.8261 38.5804 34.1163 36.7979 34.2525Z" fill="black"/>
<path d="M35.8977 34.9881C35.3909 35.0268 35.0196 35.5758 35.0684 36.2142C35.1171 36.8526 35.5675 37.3387 36.0743 37.3C36.5812 37.2613 36.9525 36.7123 36.9037 36.0739C36.855 35.4355 36.4046 34.9494 35.8977 34.9881Z" fill="white"/>
</g>
<mask id="mask4_41_3541" style="mask-type:luminance" maskUnits="userSpaceOnUse" x="40" y="38" width="18" height="13">
<path d="M55.438 38.1055L40.2063 40.8082L41.9647 50.7219L57.1963 48.019L55.438 38.1055Z" fill="white"/>
</mask>
<g mask="url(#mask4_41_3541)">
<path d="M51.6534 46.6669L47.4347 43.7245C46.2023 43.2817 44.6286 42.7165 43.7335 42.8873C42.6146 43.1008 41.7159 43.6739 41.8807 45.2395C42.0455 46.8052 43.9129 47.8496 45.7001 47.8655C47.2634 47.8793 50.3082 47.1912 51.6534 46.6669Z" fill="url(#paint12_radial_41_3541)"/>
<path d="M50.9604 46.5364L47.5829 43.9648C46.5455 43.4686 45.2206 42.8351 44.4071 42.7762C43.3901 42.7025 42.5243 42.8889 42.4794 43.8773C42.4345 44.8656 43.961 45.846 45.5418 46.1822C46.9247 46.4763 49.7051 46.6115 50.9604 46.5364Z" fill="url(#paint13_radial_41_3541)"/>
<path d="M43.646 41.5834C42.2648 42.0861 41.5647 43.2972 41.9572 44.7776C42.1925 45.6659 43.3528 45.7597 44.3318 45.6269C45.3109 45.494 52.1487 43.9943 55.4452 43.2612C52.0697 42.4485 48.0181 39.9924 43.646 41.5834Z" fill="url(#paint14_radial_41_3541)"/>
</g>
<path fill-rule="evenodd" clip-rule="evenodd" d="M57.4573 47.2833C56.2586 46.5817 54.8069 46.074 53.1922 45.793C53.1862 47.9024 51.0931 49.9724 48.1624 50.6149C44.9142 51.3271 41.8673 50.0163 41.3569 47.6873C41.3444 47.63 41.3333 47.5724 41.3241 47.5149C36.4756 49.8021 33.5058 53.6986 34.3027 57.3351C34.3602 57.5972 34.436 57.8525 34.5292 58.1004C37.6749 59.0781 41.1201 59.2397 44.5548 58.3978C50.6162 56.912 55.2617 52.6403 57.4573 47.2833Z" fill="url(#paint15_radial_41_3541)"/>
<mask id="mask5_41_3541" style="mask-type:luminance" maskUnits="userSpaceOnUse" x="1" y="33" width="32" height="32">
<path d="M32.0908 46.5159L15.1207 33.1738L0.999935 51.142L17.9701 64.4842L32.0908 46.5159Z" fill="white"/>
</mask>
<g mask="url(#mask5_41_3541)">
<path d="M23.6738 43.6583C23.4046 41.9217 20.0202 41.0049 16.1144 41.6105C12.2086 42.2161 9.2605 44.1148 9.52965 45.8514C9.7988 47.588 13.1833 48.5049 17.0891 47.8993C20.9949 47.2937 23.9429 45.3949 23.6738 43.6583Z" fill="url(#paint16_radial_41_3541)"/>
<path d="M24.2651 43.5674C23.2346 41.801 19.1788 42.2487 15.2061 44.5672C11.2334 46.8857 8.84828 50.1972 9.87872 51.9635C10.9092 53.7299 14.965 53.2822 18.9377 50.9637C22.9104 48.6452 25.2955 45.3337 24.2651 43.5674Z" fill="url(#paint17_radial_41_3541)"/>
<path d="M25.0389 43.704C23.1564 42.4057 19.2634 44.7868 16.3434 49.0223C13.4235 53.2579 12.5824 57.7439 14.4648 59.0422C16.3472 60.3404 20.2403 57.9593 23.1602 53.7238C26.0802 49.4883 26.9213 45.0022 25.0389 43.704Z" fill="url(#paint18_radial_41_3541)"/>
</g>
<defs>
<linearGradient id="paint0_linear_41_3541" x1="46.3576" y1="53.614" x2="46.7047" y2="62.1672" gradientUnits="userSpaceOnUse">
<stop stop-color="#592500"/>
<stop offset="1" stop-color="#896A54"/>
</linearGradient>
<linearGradient id="paint1_linear_41_3541" x1="33.6186" y1="53.8144" x2="33.5431" y2="62.3744" gradientUnits="userSpaceOnUse">
<stop stop-color="#592500"/>
<stop offset="1" stop-color="#896A54"/>
</linearGradient>
<radialGradient id="paint2_radial_41_3541" cx="0" cy="0" r="1" gradientUnits="userSpaceOnUse" gradientTransform="translate(33.6714 16.3051) rotate(144.118) scale(6.78813 6.78859)">
<stop stop-color="#2DE9FF"/>
<stop offset="1" stop-color="#02C7FE"/>
</radialGradient>
<radialGradient id="paint3_radial_41_3541" cx="0" cy="0" r="1" gradientUnits="userSpaceOnUse" gradientTransform="translate(39.2655 13.5834) rotate(163.243) scale(9.84154 9.84329)">
<stop stop-color="#2DE9FF"/>
<stop offset="1" stop-color="#02C7FE"/>
</radialGradient>
<radialGradient id="paint4_radial_41_3541" cx="0" cy="0" r="1" gradientUnits="userSpaceOnUse" gradientTransform="translate(22.7075 42.5732) rotate(116.892) scale(9.63359 9.63238)">
<stop stop-color="#2DE9FF"/>
<stop offset="1" stop-color="#02C7FE"/>
</radialGradient>
<radialGradient id="paint5_radial_41_3541" cx="0" cy="0" r="1" gradientUnits="userSpaceOnUse" gradientTransform="translate(24.1923 44.8119) rotate(101.487) scale(9.63393 9.63204)">
<stop stop-color="#2DE9FF"/>
<stop offset="1" stop-color="#02C7FE"/>
</radialGradient>
<radialGradient id="paint6_radial_41_3541" cx="0" cy="0" r="1" gradientUnits="userSpaceOnUse" gradientTransform="translate(60.3546 36.8408) rotate(91.2867) scale(7.98327 7.98158)">
<stop stop-color="#7AF1FF"/>
<stop offset="1" stop-color="#02C7FE"/>
</radialGradient>
<radialGradient id="paint7_radial_41_3541" cx="0" cy="0" r="1" gradientUnits="userSpaceOnUse" gradientTransform="translate(59.6536 34.6003) rotate(69.8393) scale(9.29001 9.2885)">
<stop stop-color="#7AF1FF"/>
<stop offset="1" stop-color="#02C7FE"/>
</radialGradient>
<radialGradient id="paint8_radial_41_3541" cx="0" cy="0" r="1" gradientUnits="userSpaceOnUse" gradientTransform="translate(57.3391 31.9667) rotate(44.6926) scale(10.3884 10.3884)">
<stop stop-color="#2DE9FF"/>
<stop offset="1" stop-color="#02C7FE"/>
</radialGradient>
<radialGradient id="paint9_radial_41_3541" cx="0" cy="0" r="1" gradientUnits="userSpaceOnUse" gradientTransform="translate(63.7047 33.6001) rotate(-108.914) scale(8.51158 8.51015)">
<stop stop-color="#2DE9FF"/>
<stop offset="1" stop-color="#02C7FE"/>
</radialGradient>
<radialGradient id="paint10_radial_41_3541" cx="0" cy="0" r="1" gradientUnits="userSpaceOnUse" gradientTransform="translate(42.806 26.5074) rotate(166.228) scale(35.9612 35.968)">
<stop stop-color="#C1FFFF"/>
<stop offset="0.630208" stop-color="#9DEAFF"/>
<stop offset="0.836861" stop-color="#7CD7FF"/>
<stop offset="1" stop-color="#2CAAE1"/>
</radialGradient>
<radialGradient id="paint11_radial_41_3541" cx="0" cy="0" r="1" gradientUnits="userSpaceOnUse" gradientTransform="translate(42.6459 31.7178) rotate(169.938) scale(22.995 22.9996)">
<stop stop-color="#2AE9FF"/>
<stop offset="0.401042" stop-color="#2AE9FF"/>
<stop offset="1" stop-color="#0EBFFF"/>
</radialGradient>
<radialGradient id="paint12_radial_41_3541" cx="0" cy="0" r="1" gradientUnits="userSpaceOnUse" gradientTransform="translate(46.7607 45.3773) rotate(173.037) scale(3.71486 3.71563)">
<stop stop-color="#896953"/>
<stop offset="0.971386" stop-color="#624735"/>
<stop offset="1" stop-color="#624735"/>
</radialGradient>
<radialGradient id="paint13_radial_41_3541" cx="0" cy="0" r="1" gradientUnits="userSpaceOnUse" gradientTransform="translate(49.6459 46.0529) rotate(173.037) scale(12.4787 12.4813)">
<stop stop-color="#5C3419"/>
<stop offset="1" stop-color="#200D00"/>
</radialGradient>
<radialGradient id="paint14_radial_41_3541" cx="0" cy="0" r="1" gradientUnits="userSpaceOnUse" gradientTransform="translate(46.1067 41.2029) rotate(176.234) scale(8.45735 8.45914)">
<stop stop-color="#896953"/>
<stop offset="0.401042" stop-color="#896953"/>
<stop offset="1" stop-color="#493527"/>
</radialGradient>
<radialGradient id="paint15_radial_41_3541" cx="0" cy="0" r="1" gradientUnits="userSpaceOnUse" gradientTransform="translate(45.1805 49.4348) rotate(169.938) scale(25.2395 25.2446)">
<stop stop-color="white"/>
<stop offset="0.317708" stop-color="white"/>
<stop offset="1" stop-color="white" stop-opacity="0"/>
</radialGradient>
<radialGradient id="paint16_radial_41_3541" cx="0" cy="0" r="1" gradientUnits="userSpaceOnUse" gradientTransform="translate(18.9759 45.7317) rotate(-98.8099) scale(7.98324 7.98162)">
<stop stop-color="#7AF1FF"/>
<stop offset="1" stop-color="#02C7FE"/>
</radialGradient>
<radialGradient id="paint17_radial_41_3541" cx="0" cy="0" r="1" gradientUnits="userSpaceOnUse" gradientTransform="translate(20.059 47.8129) rotate(-120.258) scale(9.28975 9.28878)">
<stop stop-color="#7AF1FF"/>
<stop offset="1" stop-color="#02C7FE"/>
</radialGradient>
<radialGradient id="paint18_radial_41_3541" cx="0" cy="0" r="1" gradientUnits="userSpaceOnUse" gradientTransform="translate(22.7984 50.0011) rotate(-145.407) scale(10.388 10.3888)">
<stop stop-color="#2DE9FF"/>
<stop offset="1" stop-color="#02C7FE"/>
</radialGradient>
</defs>
</svg>
