<svg width="42" height="42" viewBox="0 0 42 42" fill="none" xmlns="http://www.w3.org/2000/svg">
<g clip-path="url(#clip0_742_437)">
<path fill-rule="evenodd" clip-rule="evenodd" d="M38.9868 21.5954C33.5043 24.6448 28.0219 27.6942 22.5397 30.7435C22.457 30.7422 22.3921 30.7097 22.3451 30.6462C22.2251 30.5324 22.0791 30.4594 21.9071 30.4272C21.162 30.2413 20.4321 30.29 19.7174 30.5732C19.6376 30.6281 19.5889 30.7011 19.5715 30.7921C19.5553 30.7921 19.539 30.7921 19.5228 30.7921C14.0139 27.6889 8.48296 24.6234 2.92973 21.5954C2.7839 16.5557 4.3491 12.1438 7.62542 8.35988C11.2229 4.58839 15.6429 2.65819 20.8853 2.56934C26.203 2.638 30.6879 4.5844 34.3398 8.40854C37.6104 12.1774 39.1593 16.573 38.9868 21.5954Z" fill="#02A4E6"/>
<path fill-rule="evenodd" clip-rule="evenodd" d="M24.3408 25.8752C24.8814 25.183 25.2382 24.4045 25.4113 23.5396C25.4855 23.2308 25.4612 22.9226 25.3383 22.615C24.6233 21.1701 23.6096 19.9779 22.297 19.0385C21.3961 18.6029 20.504 18.6191 19.6207 19.0872C18.7184 19.7137 17.9642 20.4842 17.358 21.3985C17.0191 21.8654 16.7434 22.3682 16.5308 22.907C16.4912 23.1269 16.4993 23.3378 16.5552 23.5396C16.5996 23.8595 16.6888 24.1677 16.8228 24.4641C17.0664 24.9516 17.334 25.422 17.6257 25.8752C14.1561 26.1762 11.2284 25.0733 8.84255 22.5664C6.75854 19.9422 6.30435 17.055 7.48007 13.9049C9.19553 10.2776 12.0259 8.85829 15.9712 9.64712C17.2281 10.0239 18.3473 10.6403 19.3288 11.4962C19.9432 12.0536 20.4947 12.6618 20.9832 13.321C21.4089 12.7895 21.863 12.2786 22.3457 11.7882C23.5252 10.6466 24.9201 9.88429 26.5305 9.50114C30.1271 9.04062 32.7304 10.4274 34.3404 13.6616C35.5483 16.5513 35.305 19.3087 33.6105 21.9338C31.9081 24.1847 29.6454 25.4904 26.8224 25.8509C25.9954 25.9317 25.1682 25.9399 24.3408 25.8752Z" fill="#DDF9FE"/>
<path fill-rule="evenodd" clip-rule="evenodd" d="M13.1974 12.5442C15.4777 12.4657 16.9781 13.5038 17.6984 15.6584C18.1607 17.4517 17.7877 19.0413 16.5792 20.4271C15.5089 21.4308 14.2519 21.7795 12.8081 21.4733C10.9524 20.8696 9.90626 19.5963 9.66953 17.6535C9.45187 15.7297 10.125 14.2132 11.6889 13.1038C12.1674 12.8348 12.6702 12.6483 13.1974 12.5442Z" fill="black"/>
<path fill-rule="evenodd" clip-rule="evenodd" d="M27.6491 12.5446C29.6724 12.4404 31.1078 13.3001 31.9556 15.1236C32.5896 16.8482 32.395 18.4702 31.3716 19.9896C30.2865 21.3137 28.8997 21.8085 27.2112 21.4737C25.5549 20.9526 24.5412 19.8416 24.17 18.1405C23.7707 16.1095 24.3789 14.4632 25.9947 13.2015C26.5146 12.8906 27.0661 12.6716 27.6491 12.5446Z" fill="black"/>
<path fill-rule="evenodd" clip-rule="evenodd" d="M14.6087 14.4412C15.6138 14.3839 16.0923 14.8543 16.0442 15.8523C15.9405 16.3453 15.6404 16.6453 15.1439 16.7525C14.1134 16.7925 13.6512 16.2978 13.7571 15.2684C13.9072 14.8507 14.191 14.5749 14.6087 14.4412Z" fill="#FCFCFC"/>
<path fill-rule="evenodd" clip-rule="evenodd" d="M29.0113 14.4423C30.1297 14.4168 30.592 14.9521 30.3982 16.0481C30.0489 16.6999 29.5217 16.9027 28.8167 16.6563C28.2356 16.2917 28.049 15.7808 28.2571 15.1235C28.427 14.7991 28.6785 14.5721 29.0113 14.4423Z" fill="#FCFCFC"/>
<path fill-rule="evenodd" clip-rule="evenodd" d="M25.4115 23.5416C25.4146 23.5203 25.4065 23.5041 25.3871 23.493C24.4188 24.1922 23.4213 24.8491 22.3945 25.4637C21.8392 25.8012 21.2391 25.9472 20.5941 25.9016C19.9061 25.655 19.2573 25.3306 18.6477 24.9284C17.9453 24.4342 17.2479 23.9719 16.5553 23.5416C16.4995 23.3399 16.4914 23.129 16.531 22.909C16.7435 22.3703 17.0193 21.8675 17.3582 21.4006C17.9644 20.4863 18.7186 19.7158 19.6209 19.0892C20.5041 18.6212 21.3962 18.605 22.2972 19.0406C23.6098 19.9799 24.6235 21.1721 25.3385 22.6171C25.4613 22.9247 25.4857 23.2329 25.4115 23.5416Z" fill="#725138"/>
<path fill-rule="evenodd" clip-rule="evenodd" d="M38.9873 21.5947C38.9522 22.6869 38.8063 23.7574 38.5494 24.8063C33.7626 27.4916 28.9615 30.1517 24.146 32.7865C23.763 32.437 23.3088 32.2586 22.7835 32.2513C22.8479 31.7464 22.7505 31.276 22.4916 30.8401C22.5092 30.8069 22.5254 30.7744 22.5402 30.7428C28.0224 27.6935 33.5048 24.6442 38.9873 21.5947Z" fill="#FECC01"/>
<path fill-rule="evenodd" clip-rule="evenodd" d="M2.93018 21.5947C8.4834 24.6227 14.0144 27.6883 19.5232 30.7915C19.2188 31.2143 19.1053 31.6847 19.1826 32.2026C18.6686 32.2651 18.2145 32.4598 17.8201 32.7865C13.0036 30.1278 8.18628 27.4677 3.36812 24.8063C3.12993 23.7495 2.98395 22.679 2.93018 21.5947Z" fill="#FECC01"/>
<path fill-rule="evenodd" clip-rule="evenodd" d="M3.36792 24.8066C8.18609 27.4681 13.0034 30.1282 17.8199 32.7869C17.6717 32.935 17.5419 33.0972 17.4307 33.2735C17.0568 33.6649 16.8378 34.1352 16.7737 34.6846C16.7495 34.846 16.7414 35.0082 16.7494 35.1712C16.4801 35.0122 16.2043 34.8663 15.9222 34.7333C15.6788 34.5628 15.4193 34.4168 15.1436 34.2953C14.6407 33.9789 14.1217 33.6869 13.5865 33.4195C12.8805 32.9771 12.1506 32.5716 11.3968 32.203C10.1244 31.4345 8.82679 30.7046 7.50402 30.0133C6.97762 29.6665 6.42615 29.3583 5.84958 29.0887C5.44414 28.821 5.02241 28.5777 4.58442 28.3588C3.99593 27.2422 3.59039 26.0581 3.36792 24.8066Z" fill="#0249A5"/>
<path fill-rule="evenodd" clip-rule="evenodd" d="M38.5496 24.8066C38.332 26.027 37.959 27.1948 37.4304 28.3102C36.4436 28.8439 35.4704 29.3954 34.5108 29.9646C33.8768 30.2976 33.2605 30.6545 32.6617 31.0351C32.524 31.0633 32.4105 31.1282 32.3211 31.2298C31.8916 31.42 31.4862 31.6471 31.1046 31.911C29.717 32.6347 28.3546 33.3971 27.0172 34.198C26.7092 34.3357 26.4172 34.4979 26.1413 34.6846C25.8493 34.8306 25.5574 34.9766 25.2654 35.1226C25.2263 34.5929 25.0884 34.0901 24.8518 33.6141C24.787 33.4926 24.6978 33.3953 24.5842 33.3221C24.4578 33.1305 24.3118 32.9521 24.1462 32.7869C28.9617 30.1521 33.7628 27.492 38.5496 24.8066Z" fill="#0249A5"/>
<path fill-rule="evenodd" clip-rule="evenodd" d="M25.4112 23.5418C25.2381 24.4068 24.8813 25.1853 24.3407 25.8775C22.0998 28.9916 19.8615 28.9916 17.6256 25.8775C17.3339 25.4243 17.0663 24.9539 16.8227 24.4664C16.6887 24.17 16.5995 23.8618 16.5551 23.5418C17.2476 23.9721 17.945 24.4344 18.6474 24.9286C19.257 25.3308 19.9058 25.6552 20.5938 25.9018C21.2388 25.9474 21.8389 25.8014 22.3943 25.4639C23.421 24.8493 24.4185 24.1924 25.3868 23.4932C25.4063 23.5043 25.4143 23.5205 25.4112 23.5418Z" fill="#40342B"/>
<path fill-rule="evenodd" clip-rule="evenodd" d="M37.4302 28.3096C35.1554 33.2035 31.4572 36.5205 26.3357 38.2605C19.8719 40.0666 14.0976 38.8014 9.01278 34.4651C7.09265 32.7207 5.6166 30.6851 4.58472 28.3582C5.02271 28.5771 5.44444 28.8204 5.84988 29.0881C6.37107 29.4462 6.92259 29.7543 7.50432 30.0127C8.82709 30.704 10.1247 31.4339 11.3971 32.2024C11.4824 32.2862 11.5797 32.3592 11.6891 32.4213C11.6566 32.4375 11.6242 32.4538 11.5918 32.47C11.6485 32.4943 11.6891 32.5349 11.7134 32.5917C11.8306 32.4883 11.9522 32.4964 12.0784 32.616C12.011 32.7418 12.0434 32.8391 12.1757 32.9079C12.2442 32.9233 12.3091 32.9071 12.3703 32.8593C12.3121 32.8275 12.3121 32.8031 12.3703 32.7863C12.4434 32.8147 12.5083 32.8552 12.565 32.9079C12.5001 32.9404 12.5001 32.9728 12.565 33.0053C12.6298 33.0053 12.6947 33.0053 12.7596 33.0053C12.9302 33.1149 13.1086 33.2123 13.2949 33.2972C13.3295 33.3583 13.37 33.415 13.4165 33.4675C13.4657 33.4268 13.5225 33.4106 13.5868 33.4189C14.122 33.6864 14.641 33.9783 15.1439 34.2948C15.166 34.3414 15.1984 34.3819 15.2413 34.4164C15.4656 34.5368 15.6927 34.6422 15.9225 34.7327C16.2046 34.8657 16.4804 35.0117 16.7497 35.1706C16.7189 35.5803 16.7676 35.9777 16.8957 36.3628C17.2669 36.3552 17.6075 36.2498 17.9176 36.0465C18.05 36.024 18.1797 35.9916 18.3068 35.9492C19.1991 36.4765 20.1074 36.9794 21.0318 37.4577C21.0347 37.4841 21.0509 37.5003 21.0805 37.5063C21.7854 37.1447 22.4828 36.7391 23.1728 36.2898C23.335 36.1763 23.4973 36.0627 23.6594 35.9492C23.7865 35.9916 23.9163 36.024 24.0487 36.0465C24.3539 36.2648 24.6945 36.3702 25.0706 36.3628C25.2143 35.9977 25.2792 35.6165 25.2652 35.2193C25.5752 35.0646 25.8671 34.8862 26.1411 34.684C26.4627 34.572 26.7547 34.4097 27.017 34.1974C28.3543 33.3965 29.7168 32.6341 31.1044 31.9104C31.5374 31.7186 31.9429 31.4915 32.3209 31.2292C32.4103 31.1276 32.5238 31.0627 32.6615 31.0345C33.2096 30.7767 33.7449 30.4928 34.2673 30.183C34.374 30.1311 34.455 30.0581 34.5106 29.964C35.4702 29.3948 36.4434 28.8433 37.4302 28.3096Z" fill="#DA0B13"/>
<path fill-rule="evenodd" clip-rule="evenodd" d="M5.84973 29.0889C6.4263 29.3584 6.97777 29.6666 7.50417 30.0134C6.92244 29.7551 6.37093 29.4469 5.84973 29.0889Z" fill="#DA0B13"/>
<path fill-rule="evenodd" clip-rule="evenodd" d="M34.5105 29.9648C34.4549 30.0589 34.3738 30.1319 34.2672 30.1838C33.7447 30.4937 33.2094 30.7775 32.6614 31.0354C33.2601 30.6547 33.8765 30.2978 34.5105 29.9648Z" fill="#1B33CC"/>
<path fill-rule="evenodd" clip-rule="evenodd" d="M22.3453 30.6449C22.5245 31.2595 22.5326 31.8758 22.3696 32.494C21.8851 33.4232 21.1633 33.6747 20.2042 33.2482C19.8298 32.9943 19.5946 32.6455 19.4987 32.202C19.4545 31.7267 19.4788 31.2563 19.5717 30.7909C19.5891 30.6998 19.6378 30.6268 19.7176 30.5719C20.4323 30.2887 21.1622 30.24 21.9073 30.4259C22.0793 30.4582 22.2253 30.5312 22.3453 30.6449Z" fill="#FECC01"/>
<path fill-rule="evenodd" clip-rule="evenodd" d="M32.3209 31.2295C31.9428 31.4919 31.5373 31.7189 31.1044 31.9107C31.4859 31.6468 31.8914 31.4198 32.3209 31.2295Z" fill="#1A34CA"/>
<path fill-rule="evenodd" clip-rule="evenodd" d="M11.3969 32.2031C12.1506 32.5718 12.8805 32.9773 13.5866 33.4196C13.5222 33.4114 13.4654 33.4276 13.4162 33.4683C13.3697 33.4158 13.3292 33.359 13.2946 33.298C13.1084 33.213 12.93 33.1157 12.7593 33.006C12.6945 33.006 12.6296 33.006 12.5647 33.006C12.4998 32.9736 12.4998 32.9412 12.5647 32.9087C12.508 32.8559 12.4431 32.8154 12.3701 32.787C12.3119 32.8039 12.3119 32.8282 12.3701 32.86C12.3088 32.9078 12.2439 32.924 12.1754 32.9087C12.0432 32.8398 12.0107 32.7425 12.0781 32.6167C11.952 32.4972 11.8303 32.4891 11.7131 32.5924C11.6888 32.5356 11.6483 32.4951 11.5915 32.4708C11.6239 32.4546 11.6564 32.4383 11.6888 32.4221C11.5795 32.36 11.4822 32.287 11.3969 32.2031Z" fill="#DA0B13"/>
<path fill-rule="evenodd" clip-rule="evenodd" d="M24.5838 33.3215C24.6975 33.3947 24.7867 33.492 24.8515 33.6135C25.088 34.0895 25.226 34.5923 25.2651 35.122C25.2651 35.1544 25.2651 35.1868 25.2651 35.2193C25.2791 35.6165 25.2142 35.9976 25.0704 36.3628C24.6944 36.3702 24.3538 36.2647 24.0486 36.0465C23.7621 35.7355 23.462 35.4273 23.1484 35.122C22.7192 34.5964 22.3705 34.0205 22.1022 33.3945C22.3784 33.1428 22.5893 32.8427 22.7348 32.4943C23.0094 32.4574 23.269 32.5142 23.5133 32.6646C23.8796 32.8719 24.2365 33.0909 24.5838 33.3215Z" fill="#FECC01"/>
<path fill-rule="evenodd" clip-rule="evenodd" d="M22.3456 30.6465C22.3926 30.71 22.4575 30.7425 22.5402 30.7438C22.5254 30.7754 22.5092 30.8079 22.4915 30.8411C22.7505 31.277 22.8478 31.7474 22.7835 32.2523C23.3088 32.2596 23.7629 32.438 24.146 32.7875C24.3115 32.9527 24.4575 33.1312 24.5839 33.3228C24.2366 33.0921 23.8797 32.8732 23.5134 32.6659C23.2691 32.5154 23.0095 32.4586 22.7348 32.4956C22.5894 32.844 22.3785 33.1441 22.1023 33.3958C22.3706 34.0218 22.7193 34.5976 23.1485 35.1232C23.4621 35.4286 23.7622 35.7368 24.0487 36.0477C23.9163 36.0252 23.7865 35.9928 23.6594 35.9504C22.9514 35.6722 22.3432 35.2505 21.8346 34.6853C21.6454 34.4367 21.5076 34.161 21.421 33.858C21.3886 33.8418 21.3562 33.8256 21.3237 33.8094C21.0599 33.8538 20.8004 33.87 20.5451 33.858C20.3642 34.3898 20.056 34.8358 19.6206 35.1962C19.2098 35.4988 18.7718 35.7502 18.3068 35.9504C18.1797 35.9928 18.0499 36.0252 17.9175 36.0477C18.7698 35.3249 19.4186 34.449 19.8639 33.4201C19.5683 33.1694 19.3575 32.8612 19.2313 32.4956C19.0836 32.4389 18.9377 32.447 18.7934 32.5199C18.3287 32.7601 17.8746 33.0116 17.4309 33.2741C17.5422 33.0979 17.6719 32.9357 17.8202 32.7875C18.2145 32.4608 18.6687 32.2661 19.1827 32.2036C19.1053 31.6857 19.2189 31.2153 19.5233 30.7925C19.5395 30.7925 19.5557 30.7925 19.5719 30.7925C19.4791 31.2579 19.4548 31.7283 19.499 32.2036C19.5949 32.6471 19.8301 32.9959 20.2045 33.2498C21.1636 33.6763 21.8854 33.4248 22.3699 32.4956C22.5329 31.8774 22.5248 31.2611 22.3456 30.6465Z" fill="#AE8C00"/>
<path fill-rule="evenodd" clip-rule="evenodd" d="M17.9178 36.0474C17.6077 36.2506 17.2671 36.356 16.8959 36.3637C16.7678 35.9785 16.7191 35.5811 16.7499 35.1715C16.7419 35.0085 16.75 34.8463 16.7743 34.6849C16.8383 34.1355 17.0573 33.6651 17.4312 33.2738C17.8748 33.0112 18.329 32.7598 18.7936 32.5195C18.9379 32.4466 19.0839 32.4385 19.2316 32.4952C19.3577 32.8608 19.5686 33.169 19.8642 33.4197C19.4189 34.4486 18.77 35.3245 17.9178 36.0474Z" fill="#FECC01"/>
<path fill-rule="evenodd" clip-rule="evenodd" d="M23.6592 35.9487C23.4971 36.0622 23.3348 36.1758 23.1726 36.2893C22.4475 36.6576 21.7338 37.0469 21.0316 37.4571C20.1073 36.9788 19.1989 36.476 18.3066 35.9487C18.7717 35.7484 19.2096 35.497 19.6205 35.1944C20.0559 34.834 20.364 34.388 20.545 33.8563C20.8002 33.8682 21.0598 33.852 21.3236 33.8076C21.356 33.8238 21.3884 33.8401 21.4209 33.8563C21.5074 34.1592 21.6453 34.4349 21.8345 34.6835C22.343 35.2487 22.9513 35.6705 23.6592 35.9487Z" fill="#0249A5"/>
<path fill-rule="evenodd" clip-rule="evenodd" d="M27.0171 34.1982C26.7548 34.4105 26.4629 34.5728 26.1412 34.6848C26.4171 34.4981 26.7091 34.3359 27.0171 34.1982Z" fill="#1E31C8"/>
<path fill-rule="evenodd" clip-rule="evenodd" d="M15.1439 34.2949C15.4196 34.4164 15.6791 34.5624 15.9225 34.7329C15.6927 34.6424 15.4656 34.537 15.2412 34.4166C15.1984 34.3821 15.166 34.3415 15.1439 34.2949Z" fill="#DA0B13"/>
<path fill-rule="evenodd" clip-rule="evenodd" d="M26.1413 34.6836C25.8673 34.8857 25.5753 35.0642 25.2654 35.2189C25.2654 35.1864 25.2654 35.154 25.2654 35.1215C25.5573 34.9756 25.8493 34.8296 26.1413 34.6836Z" fill="#1B36CC"/>
<path fill-rule="evenodd" clip-rule="evenodd" d="M23.1728 36.29C22.4828 36.7394 21.7853 37.1449 21.0804 37.5065C21.0509 37.5005 21.0347 37.4843 21.0317 37.4579C21.734 37.0477 22.4476 36.6584 23.1728 36.29Z" fill="#DA0B13"/>
</g>
<defs>
<clipPath id="clip0_742_437">
<rect width="42" height="42" rx="21" fill="white"/>
</clipPath>
</defs>
</svg>
