<svg width="70" height="40" viewBox="0 0 70 40" fill="none" xmlns="http://www.w3.org/2000/svg">
<path d="M4.2735 12.1351H6.531V9.40952H10.0537V7.67226H6.531V5.92338H10.5327V4.18555H4.2735V12.1351Z" fill="#3C3C3B"/>
<path d="M13.6523 3.70898H11.4858V12.1355H13.6523V3.70898Z" fill="#3C3C3B"/>
<path d="M19.393 8.94484C19.393 9.28532 19.3399 9.56538 19.2331 9.785C19.127 9.99708 18.9864 10.1522 18.8114 10.2504C18.6364 10.3486 18.4427 10.398 18.2298 10.398C17.9031 10.398 17.6482 10.2957 17.4656 10.0912C17.2906 9.88668 17.2031 9.5462 17.2031 9.06918V5.98047H15.0366V9.42128C15.0366 10.0651 15.1469 10.5984 15.3674 11.0226C15.5955 11.4392 15.907 11.7454 16.3025 11.9423C16.7055 12.1393 17.1576 12.2375 17.6593 12.2375C18.1306 12.2375 18.5675 12.1277 18.9706 11.9081C19.1684 11.7965 19.3428 11.6571 19.495 11.4909V12.1352H21.5589V5.98047H19.3924V8.94426L19.393 8.94484Z" fill="#3C3C3B"/>
<path d="M26.0213 10.5683C25.8312 10.5683 25.6754 10.5079 25.5541 10.3865C25.4327 10.2575 25.3715 10.0837 25.3715 9.86412V7.82008H26.7855V6.20774H25.3715V4.60645H23.205V6.20774H22.3043V7.82008H23.205V9.88678C23.205 10.6741 23.4255 11.2644 23.8665 11.6583C24.3075 12.0447 24.9229 12.2376 25.7133 12.2376C26.0021 12.2376 26.2797 12.2074 26.5457 12.147C26.8117 12.0941 27.0357 12.0069 27.2183 11.8855L26.6822 10.3748C26.4997 10.5038 26.2792 10.5677 26.0207 10.5677L26.0213 10.5683Z" fill="#3C3C3B"/>
<path d="M30.9983 10.5683C30.8081 10.5683 30.6524 10.5079 30.5311 10.3865C30.4097 10.2575 30.3485 10.0837 30.3485 9.86412V7.82008H31.7625V6.20774H30.3485V4.60645H28.182V6.20774H27.2813V7.82008H28.182V9.88678C28.182 10.6741 28.4025 11.2644 28.8435 11.6583C29.2845 12.0447 29.8999 12.2376 30.6903 12.2376C30.9791 12.2376 31.2567 12.2074 31.5227 12.147C31.7887 12.0941 32.0127 12.0069 32.1953 11.8855L31.6592 10.3748C31.4766 10.5038 31.2561 10.5677 30.9977 10.5677L30.9983 10.5683Z" fill="#3C3C3B"/>
<path d="M37.527 6.25269C37.0253 6.00285 36.4706 5.87793 35.8622 5.87793C35.2158 5.87793 34.6348 6.01447 34.118 6.28697C33.6012 6.55191 33.1946 6.92667 32.8983 7.41125C32.6095 7.88827 32.4648 8.43326 32.4648 9.04682C32.4648 9.66038 32.613 10.2089 32.9093 10.6934C33.2133 11.1705 33.635 11.5487 34.1752 11.8293C34.7223 12.1018 35.3611 12.2384 36.0908 12.2384C36.6835 12.2384 37.1968 12.1553 37.6303 11.9885C38.0637 11.8142 38.4283 11.5644 38.7246 11.239L37.5842 10.0578C37.3713 10.2397 37.1548 10.3756 36.9343 10.4668C36.7214 10.5499 36.463 10.5918 36.1591 10.5918C35.8324 10.5918 35.5513 10.5348 35.3156 10.4215C35.0799 10.3007 34.8973 10.1298 34.7684 9.91022C34.7165 9.8161 34.678 9.71268 34.6483 9.60344H39.1353C39.1428 9.52036 39.1504 9.42914 39.158 9.33094C39.1656 9.23275 39.1697 9.1456 39.1697 9.06948C39.1697 8.38794 39.0215 7.80867 38.7252 7.33223C38.4288 6.85521 38.0298 6.49556 37.5282 6.25327L37.527 6.25269ZM35.1896 7.58149C35.3873 7.46819 35.6154 7.41125 35.8738 7.41125C36.1323 7.41125 36.3563 7.46819 36.5464 7.58149C36.7442 7.69479 36.8958 7.85399 37.0026 8.05851C37.0708 8.18052 37.1146 8.31822 37.1391 8.46754H34.6156C34.6413 8.32287 34.6833 8.18924 34.7451 8.07013C34.8513 7.85805 35 7.69537 35.1896 7.58207V7.58149Z" fill="#3C3C3B"/>
<path d="M42.8126 6.23003C42.5828 6.35727 42.3897 6.52286 42.231 6.7239V5.98019H40.1672V12.135H42.3337V9.30712C42.3337 8.76968 42.4708 8.3833 42.7443 8.14856C43.0179 7.90628 43.3755 7.78543 43.8159 7.78543C43.8993 7.78543 43.9758 7.78949 44.044 7.79705C44.1198 7.79705 44.2073 7.8046 44.3065 7.81971V5.87793C43.7214 5.87793 43.2233 5.9953 42.8132 6.23003H42.8126Z" fill="#3C3C3B"/>
<path d="M6.05207 17.324C6.33323 17.0515 6.66398 16.8394 7.04373 16.6878C7.43165 16.5361 7.84932 16.4606 8.2979 16.4606C8.74648 16.4606 9.1379 16.5402 9.51765 16.6988C9.89798 16.8505 10.2398 17.0852 10.5437 17.403L11.2846 16.6878C10.92 16.2787 10.4749 15.9725 9.95048 15.768C9.43365 15.5559 8.86724 15.4502 8.25182 15.4502C7.6364 15.4502 7.08107 15.5525 6.56423 15.757C6.05498 15.9539 5.61048 16.2375 5.23015 16.6088C4.84982 16.9719 4.55348 17.4001 4.34057 17.8922C4.12765 18.3844 4.02148 18.9259 4.02148 19.5162C4.02148 20.1065 4.12765 20.648 4.34057 21.1401C4.55348 21.6323 4.84632 22.064 5.21848 22.4347C5.59823 22.7978 6.04332 23.0819 6.55257 23.2864C7.0694 23.4834 7.63173 23.5816 8.24015 23.5816C8.84857 23.5816 9.43365 23.4759 9.95048 23.2638C10.4749 23.0517 10.9194 22.7414 11.2846 22.3324L10.5437 21.6172C10.2398 21.9425 9.8974 22.1848 9.51765 22.344C9.13732 22.4957 8.73073 22.5712 8.2979 22.5712C7.86507 22.5712 7.43165 22.4957 7.04373 22.344C6.6634 22.1924 6.33323 21.9809 6.05207 21.7078C5.7709 21.4353 5.5504 21.1134 5.39057 20.7427C5.23832 20.3639 5.16248 19.9554 5.16248 19.5162C5.16248 19.0769 5.23832 18.672 5.39057 18.3013C5.5504 17.923 5.7709 17.5971 6.05207 17.3246V17.324Z" fill="#3C3C3B"/>
<path d="M16.692 17.8115C16.2207 17.5465 15.6852 17.4141 15.0844 17.4141C14.4835 17.4141 13.9364 17.5465 13.4656 17.8115C12.9943 18.0689 12.6221 18.4285 12.3485 18.8904C12.075 19.3524 11.9379 19.8822 11.9379 20.4801C11.9379 21.078 12.075 21.6003 12.3485 22.0698C12.6221 22.5317 12.9949 22.8948 13.4656 23.1598C13.9369 23.4247 14.4765 23.5572 15.0844 23.5572C15.6922 23.5572 16.2207 23.4247 16.692 23.1598C17.1709 22.8948 17.5431 22.5311 17.8091 22.0698C18.0827 21.6079 18.2198 21.078 18.2198 20.4801C18.2198 19.8822 18.0827 19.3442 17.8091 18.8904C17.5431 18.4285 17.1704 18.0689 16.692 17.8115ZM16.8513 21.605C16.6763 21.9228 16.433 22.1691 16.1215 22.3429C15.8176 22.5172 15.4717 22.6043 15.0838 22.6043C14.6959 22.6043 14.3505 22.5172 14.046 22.3429C13.7421 22.1686 13.4989 21.9228 13.3163 21.605C13.1337 21.2796 13.0427 20.9048 13.0427 20.4807C13.0427 20.0566 13.1337 19.6783 13.3163 19.368C13.4989 19.0502 13.7421 18.8039 14.046 18.6301C14.3499 18.4558 14.6959 18.3687 15.0838 18.3687C15.4717 18.3687 15.817 18.4558 16.1215 18.6301C16.433 18.8045 16.6763 19.0502 16.8513 19.368C17.0263 19.6783 17.1138 20.0496 17.1138 20.4807C17.1138 20.9118 17.0263 21.2796 16.8513 21.605Z" fill="#3C3C3B"/>
<path d="M24.2597 17.6982C23.8876 17.5088 23.4541 17.4141 22.9601 17.4141C22.4129 17.4141 21.934 17.5239 21.5233 17.7435C21.2171 17.9074 20.9697 18.12 20.7825 18.3809V17.471H19.7336V23.4898H20.828V20.3895C20.828 19.9502 20.9038 19.583 21.0561 19.2879C21.2159 18.9927 21.4399 18.769 21.7286 18.6179C22.0174 18.4663 22.3557 18.3908 22.7436 18.3908C23.2605 18.3908 23.6595 18.5383 23.9406 18.8335C24.2294 19.1287 24.3741 19.5679 24.3741 20.1507V23.4892H25.4684V20.0258C25.4684 19.4354 25.3622 18.9468 25.1493 18.561C24.9364 18.1746 24.6401 17.887 24.2597 17.6982Z" fill="#3C3C3B"/>
<path d="M28.9759 16.1657C29.1433 15.9838 29.3865 15.8932 29.7056 15.8932C29.8655 15.8932 30.0171 15.9199 30.1618 15.9728C30.3065 16.0181 30.4354 16.0861 30.5497 16.1773L30.8805 15.3482C30.7282 15.2273 30.5421 15.1402 30.3216 15.0867C30.1087 15.0263 29.8847 14.9961 29.649 14.9961C29.0103 14.9961 28.5168 15.1739 28.1668 15.5301C27.825 15.8781 27.6535 16.3476 27.6535 16.9385V17.4724H26.6274V18.3695H27.6535V23.4912H28.7478V18.3695H30.4809V17.4724H28.725V16.9501C28.725 16.602 28.8085 16.3406 28.9759 16.1663V16.1657Z" fill="#3C3C3B"/>
<path d="M5.81296 26.3301H4.67255V34.2796H10.1337V33.2919H5.81296V26.3301Z" fill="#3C3C3B"/>
<path d="M13.4832 28.2041C13.0043 28.2041 12.5446 28.2721 12.1036 28.4086C11.6702 28.5376 11.2981 28.7264 10.9866 28.9763L11.4427 29.7938C11.6784 29.5968 11.9671 29.4417 12.309 29.3284C12.6508 29.2075 13.0008 29.1465 13.3578 29.1465C13.8974 29.1465 14.3005 29.2755 14.5665 29.5329C14.8401 29.7827 14.9771 30.1383 14.9771 30.6002V30.8158H13.2441C12.6438 30.8158 12.1649 30.8954 11.8073 31.054C11.4579 31.2132 11.203 31.4247 11.0431 31.6902C10.8909 31.9552 10.8151 32.2503 10.8151 32.5763C10.8151 32.9022 10.9061 33.2236 11.0886 33.4961C11.2712 33.761 11.5296 33.969 11.8639 34.1206C12.2057 34.2723 12.6012 34.3478 13.0498 34.3478C13.6046 34.3478 14.0642 34.2456 14.4294 34.041C14.6855 33.8923 14.8861 33.707 15.0337 33.4873V34.2793H16.0715V30.6456C16.0715 29.8205 15.8475 29.2069 15.3989 28.806C14.9503 28.4046 14.3121 28.2041 13.4832 28.2041ZM14.304 33.2352C14.0001 33.417 13.6425 33.5077 13.2324 33.5077C12.8223 33.5077 12.4875 33.4205 12.2518 33.2462C12.0161 33.0644 11.8983 32.8261 11.8983 32.531C11.8983 32.2736 11.9934 32.054 12.1836 31.8721C12.3737 31.6902 12.7424 31.5996 13.2896 31.5996H14.9771V32.4398C14.8401 32.7878 14.6161 33.0527 14.3046 33.2346L14.304 33.2352Z" fill="#3C3C3B"/>
<path d="M20.2971 33.4285C19.9932 33.4285 19.7575 33.3414 19.5901 33.1671C19.4303 32.9928 19.3509 32.7429 19.3509 32.4176V29.1586H21.084V28.2615H19.3509V26.9443H18.2566V28.2615H17.2305V29.1586H18.2566V32.4635C18.2566 33.0689 18.424 33.5349 18.7583 33.8602C19.0925 34.1856 19.5639 34.3483 20.1723 34.3483C20.4231 34.3483 20.6623 34.314 20.8904 34.246C21.126 34.1781 21.3273 34.0717 21.4947 33.9282L21.1529 33.1444C20.9248 33.3338 20.6395 33.4285 20.2977 33.4285H20.2971Z" fill="#3C3C3B"/>
<path d="M25.018 28.2041C24.5391 28.2041 24.0794 28.2721 23.6384 28.4086C23.205 28.5376 22.8329 28.7264 22.5214 28.9763L22.9775 29.7938C23.2132 29.5968 23.5019 29.4417 23.8438 29.3284C24.1856 29.2075 24.5356 29.1465 24.8926 29.1465C25.4322 29.1465 25.8353 29.2755 26.1013 29.5329C26.3749 29.7827 26.5119 30.1383 26.5119 30.6002V30.8158H24.7789C24.1786 30.8158 23.6997 30.8954 23.3421 31.054C22.9927 31.2132 22.7378 31.4247 22.5779 31.6902C22.4257 31.9552 22.3499 32.2503 22.3499 32.5763C22.3499 32.9022 22.4409 33.2236 22.6234 33.4961C22.806 33.761 23.0644 33.969 23.3987 34.1206C23.7405 34.2723 24.136 34.3478 24.5846 34.3478C25.1394 34.3478 25.5996 34.2456 25.9642 34.041C26.2203 33.8923 26.4209 33.707 26.5685 33.4873V34.2793H27.6063V30.6456C27.6063 29.8205 27.3823 29.2069 26.9337 28.806C26.4851 28.4046 25.8469 28.2041 25.018 28.2041ZM25.8388 33.2352C25.5349 33.417 25.1773 33.5077 24.7672 33.5077C24.3571 33.5077 24.0223 33.4205 23.7866 33.2462C23.5509 33.0644 23.4331 32.8261 23.4331 32.531C23.4331 32.2736 23.5282 32.054 23.7184 31.8721C23.9085 31.6902 24.2772 31.5996 24.8244 31.5996H26.5119V32.4398C26.3749 32.7878 26.1509 33.0527 25.8394 33.2346L25.8388 33.2352Z" fill="#3C3C3B"/>
<path d="M39.3459 29.351C39.1405 28.9647 38.8518 28.6771 38.4796 28.4882C38.1075 28.2988 37.6775 28.2041 37.191 28.2041C36.5832 28.2041 36.0512 28.3441 35.595 28.6242C35.2888 28.8124 35.0461 29.0419 34.863 29.3121C34.7154 29.0321 34.5153 28.806 34.261 28.6358C33.8427 28.3482 33.3451 28.2041 32.7676 28.2041C32.2432 28.2041 31.7835 28.3139 31.388 28.5335C31.0964 28.6956 30.8613 28.9054 30.681 29.1622V28.261H29.6322V34.2798H30.7265V31.1795C30.7265 30.7403 30.8024 30.3731 30.9546 30.0779C31.1069 29.7827 31.3192 29.559 31.5934 29.408C31.867 29.2563 32.1825 29.1808 32.5395 29.1808C33.0412 29.1808 33.425 29.3284 33.691 29.6235C33.9646 29.9187 34.1017 30.358 34.1017 30.9407V34.2793H35.196V31.1789C35.196 30.7397 35.2684 30.3725 35.4125 30.0773C35.5647 29.7822 35.777 29.5585 36.0512 29.4074C36.3248 29.2558 36.6439 29.1802 37.009 29.1802C37.5031 29.1802 37.887 29.3278 38.1605 29.623C38.4341 29.9181 38.5712 30.3574 38.5712 30.9401V34.2787H39.6655V30.8152C39.6655 30.2249 39.5594 29.7363 39.3465 29.3505L39.3459 29.351Z" fill="#3C3C3B"/>
<path d="M65.5352 19.3193H56.0887L47.8234 27.4984L52.5449 32.171L65.5352 19.3193Z" fill="url(#paint0_linear_344_9028)"/>
<path d="M45.461 25.1613L40.7372 20.4869L56.0888 5.29785H65.5353L45.461 25.1613Z" fill="url(#paint1_linear_344_9028)"/>
<path d="M52.5455 32.1706L56.0886 35.6771H65.5351L57.2699 27.498L52.5455 32.1706Z" fill="url(#paint2_linear_344_9028)"/>
<defs>
<linearGradient id="paint0_linear_344_9028" x1="65.7516" y1="14.8344" x2="48.3425" y2="31.5782" gradientUnits="userSpaceOnUse">
<stop stop-color="white"/>
<stop offset="0.27" stop-color="#36A9E1"/>
<stop offset="1" stop-color="#1D71B8"/>
</linearGradient>
<linearGradient id="paint1_linear_344_9028" x1="7.05436" y1="39.2603" x2="67.2992" y2="5.8828" gradientUnits="userSpaceOnUse">
<stop stop-color="white"/>
<stop offset="0.27" stop-color="#FFED00"/>
<stop offset="1" stop-color="#F9B233"/>
</linearGradient>
<linearGradient id="paint2_linear_344_9028" x1="68.4261" y1="43.6516" x2="54.8656" y2="29.4848" gradientUnits="userSpaceOnUse">
<stop stop-color="white"/>
<stop offset="0.27" stop-color="#E30613"/>
<stop offset="1" stop-color="#BE1622"/>
</linearGradient>
</defs>
</svg>
