<svg width="19" height="18" viewBox="0 0 19 18" fill="none" xmlns="http://www.w3.org/2000/svg">
<path d="M13.2002 0C14.5263 0 15.798 0.526784 16.7357 1.46447C17.6734 2.40215 18.2002 3.67392 18.2002 5V13C18.2002 14.3261 17.6734 15.5979 16.7357 16.5355C15.798 17.4732 14.5263 18 13.2002 18H5.2002C3.87411 18 2.60234 17.4732 1.66466 16.5355C0.726979 15.5979 0.200195 14.3261 0.200195 13V5C0.200195 3.67392 0.726979 2.40215 1.66466 1.46447C2.60234 0.526784 3.87411 0 5.2002 0H13.2002ZM9.2002 5C8.13933 5 7.12191 5.42143 6.37177 6.17157C5.62162 6.92172 5.2002 7.93913 5.2002 9C5.2002 10.0609 5.62162 11.0783 6.37177 11.8284C7.12191 12.5786 8.13933 13 9.2002 13C10.2611 13 11.2785 12.5786 12.0286 11.8284C12.7788 11.0783 13.2002 10.0609 13.2002 9C13.2002 7.93913 12.7788 6.92172 12.0286 6.17157C11.2785 5.42143 10.2611 5 9.2002 5ZM9.2002 7C9.73063 7 10.2393 7.21071 10.6144 7.58579C10.9895 7.96086 11.2002 8.46957 11.2002 9C11.2002 9.53043 10.9895 10.0391 10.6144 10.4142C10.2393 10.7893 9.73063 11 9.2002 11C8.66976 11 8.16106 10.7893 7.78598 10.4142C7.41091 10.0391 7.2002 9.53043 7.2002 9C7.2002 8.46957 7.41091 7.96086 7.78598 7.58579C8.16106 7.21071 8.66976 7 9.2002 7ZM13.7002 3.5C13.435 3.5 13.1806 3.60536 12.9931 3.79289C12.8056 3.98043 12.7002 4.23478 12.7002 4.5C12.7002 4.76522 12.8056 5.01957 12.9931 5.20711C13.1806 5.39464 13.435 5.5 13.7002 5.5C13.9654 5.5 14.2198 5.39464 14.4073 5.20711C14.5948 5.01957 14.7002 4.76522 14.7002 4.5C14.7002 4.23478 14.5948 3.98043 14.4073 3.79289C14.2198 3.60536 13.9654 3.5 13.7002 3.5Z" fill="#344054"/>
</svg>
