<svg width="19" height="18" viewBox="0 0 19 18" fill="none" xmlns="http://www.w3.org/2000/svg">
<path d="M16.4566 0H2.74261C2.17441 0.00052954 1.62964 0.226479 1.22786 0.628255C0.826089 1.03003 0.600139 1.5748 0.599609 2.143V15.857C0.599609 17.04 1.56061 18 2.74261 18H16.4566C17.0248 17.9995 17.5696 17.7735 17.9714 17.3717C18.3731 16.97 18.5991 16.4252 18.5996 15.857V2.143C18.5991 1.5748 18.3731 1.03003 17.9714 0.628255C17.5696 0.226479 17.0248 0.00052954 16.4566 0ZM14.7446 7.853C14.1138 7.91424 13.4792 7.78501 12.9226 7.482C12.4531 7.22889 12.0544 6.86245 11.7626 6.416V11.36C11.7626 12.0827 11.5483 12.7892 11.1468 13.3901C10.7453 13.9909 10.1746 14.4593 9.50693 14.7359C8.83925 15.0124 8.10456 15.0848 7.39575 14.9438C6.68694 14.8028 6.03586 14.4548 5.52484 13.9438C5.01382 13.4327 4.66581 12.7817 4.52482 12.0729C4.38383 11.3641 4.45619 10.6294 4.73275 9.96167C5.00932 9.29399 5.47766 8.72332 6.07856 8.32181C6.67945 7.9203 7.38592 7.706 8.10861 7.706C8.18461 7.706 8.25861 7.713 8.33361 7.717V9.518C8.25861 9.509 8.18561 9.495 8.10861 9.495C7.61398 9.495 7.13961 9.69149 6.78986 10.0412C6.4401 10.391 6.24361 10.8654 6.24361 11.36C6.24361 11.8546 6.4401 12.329 6.78986 12.6788C7.13961 13.0285 7.61398 13.225 8.10861 13.225C9.13861 13.225 10.0486 12.414 10.0486 11.384L10.0666 2.986H11.7896C11.8685 3.73443 12.2078 4.43136 12.7483 4.95503C13.2888 5.4787 13.9961 5.79583 14.7466 5.851V7.853" fill="#344054"/>
</svg>
