<svg width="21" height="14" viewBox="0 0 21 14" fill="none" xmlns="http://www.w3.org/2000/svg">
<path d="M8.7998 10L13.9898 7L8.7998 4V10ZM20.3598 2.17C20.4898 2.64 20.5798 3.27 20.6398 4.07C20.7098 4.87 20.7398 5.56 20.7398 6.16L20.7998 7C20.7998 9.19 20.6398 10.8 20.3598 11.83C20.1098 12.73 19.5298 13.31 18.6298 13.56C18.1598 13.69 17.2998 13.78 15.9798 13.84C14.6798 13.91 13.4898 13.94 12.3898 13.94L10.7998 14C6.6098 14 3.9998 13.84 2.9698 13.56C2.0698 13.31 1.4898 12.73 1.2398 11.83C1.1098 11.36 1.0198 10.73 0.959805 9.93C0.889805 9.13 0.859805 8.44 0.859805 7.84L0.799805 7C0.799805 4.81 0.959805 3.2 1.2398 2.17C1.4898 1.27 2.0698 0.69 2.9698 0.44C3.4398 0.31 4.2998 0.22 5.6198 0.16C6.9198 0.0899998 8.1098 0.0599999 9.2098 0.0599999L10.7998 0C14.9898 0 17.5998 0.16 18.6298 0.44C19.5298 0.69 20.1098 1.27 20.3598 2.17Z" fill="#344054"/>
</svg>
